<?xml version="1.0" encoding="UTF-8" standalone="no"?>
<!-- Created with matplotlib (http://matplotlib.org/) -->

<svg
   xmlns:dc="http://purl.org/dc/elements/1.1/"
   xmlns:cc="http://creativecommons.org/ns#"
   xmlns:rdf="http://www.w3.org/1999/02/22-rdf-syntax-ns#"
   xmlns:svg="http://www.w3.org/2000/svg"
   xmlns="http://www.w3.org/2000/svg"
   xmlns:xlink="http://www.w3.org/1999/xlink"
   xmlns:sodipodi="http://sodipodi.sourceforge.net/DTD/sodipodi-0.dtd"
   xmlns:inkscape="http://www.inkscape.org/namespaces/inkscape"
   height="729pt"
   version="1.1"
   viewBox="0 0 1296 729"
   width="1296pt"
   id="svg2"
   inkscape:version="0.48.4 r9939"
   sodipodi:docname="both_thresholds.svg">
  <metadata
     id="metadata309">
    <rdf:RDF>
      <cc:Work
         rdf:about="">
        <dc:format>image/svg+xml</dc:format>
        <dc:type
           rdf:resource="http://purl.org/dc/dcmitype/StillImage" />
      </cc:Work>
    </rdf:RDF>
  </metadata>
  <sodipodi:namedview
     pagecolor="#ffffff"
     bordercolor="#666666"
     borderopacity="1"
     objecttolerance="10"
     gridtolerance="10"
     guidetolerance="10"
     inkscape:pageopacity="0"
     inkscape:pageshadow="2"
     inkscape:window-width="1366"
     inkscape:window-height="713"
     id="namedview307"
     showgrid="false"
     inkscape:zoom="0.59588477"
     inkscape:cx="994.21753"
     inkscape:cy="469.91633"
     inkscape:window-x="0"
     inkscape:window-y="27"
     inkscape:window-maximized="1"
     inkscape:current-layer="svg2" />
  <defs
     id="defs4">
    <style
       type="text/css"
       id="style6">
*{stroke-linecap:square;stroke-linejoin:round;}
  </style>
  </defs>
  <g
     id="figure_1">
    <g
       id="patch_1">
      <path
         d=" M0 729 L1296 729 L1296 0 L0 0 z "
         style="fill:#ffffff;"
         id="path10" />
    </g>
    <g
       id="axes_1">
      <g
         id="patch_2">
        <path
           d=" M162 656.1 L1166.4 656.1 L1166.4 72.9 L162 72.9 z "
           style="fill:#ffffff;"
           id="path14" />
      </g>
      <g
         id="line2d_1">
        <defs
           id="defs17">
          <path
             d=" M0 3 C0.795609 3 1.55874 2.6839 2.12132 2.12132 C2.6839 1.55874 3 0.795609 3 0 C3 -0.795609 2.6839 -1.55874 2.12132 -2.12132 C1.55874 -2.6839 0.795609 -3 0 -3 C-0.795609 -3 -1.55874 -2.6839 -2.12132 -2.12132 C-2.6839 -1.55874 -3 -0.795609 -3 0 C-3 0.795609 -2.6839 1.55874 -2.12132 2.12132 C-1.55874 2.6839 -0.795609 3 0 3 z "
             id="m0f54036a79"
             style="stroke:#000000;stroke-linecap:butt;stroke-width:0.5;" />
        </defs>
        <g
           clip-path="url(#p443d524342)"
           id="g20">
          <use
             style="fill:#0000ff;stroke:#000000;stroke-linecap:butt;stroke-width:0.5;"
             x="664.2"
             xlink:href="#m0f54036a79"
             y="322.842857143"
             id="use22" />
          <use
             style="fill:#0000ff;stroke:#000000;stroke-linecap:butt;stroke-width:0.5;"
             x="664.2"
             xlink:href="#m0f54036a79"
             y="267.3"
             id="use24" />
          <use
             style="fill:#0000ff;stroke:#000000;stroke-linecap:butt;stroke-width:0.5;"
             x="664.2"
             xlink:href="#m0f54036a79"
             y="322.842857143"
             id="use26" />
        </g>
      </g>
      <g
         id="line2d_2">
        <path
           clip-path="url(#p443d524342)"
           d=" M162 304.329 L1166.4 304.329"
           style="fill:none;stroke:#ff0000;"
           id="path29" />
      </g>
      <g
         id="line2d_3">
        <path
           clip-path="url(#p443d524342)"
           d=" M162 218.7 L1166.4 218.7"
           style="fill:none;stroke:#008000;"
           id="path32" />
      </g>
      <g
         id="matplotlib.axis_1">
        <g
           id="xtick_1">
          <g
             id="line2d_4">
            <defs
               id="defs37">
              <path
                 d=" M0 0 L0 -4"
                 id="mcb557df647"
                 style="stroke:#000000;stroke-linecap:butt;stroke-width:0.5;" />
            </defs>
            <g
               id="g40">
              <use
                 style="stroke:#000000;stroke-linecap:butt;stroke-width:0.5;"
                 x="162.0"
                 xlink:href="#mcb557df647"
                 y="656.1"
                 id="use42" />
            </g>
          </g>
          <g
             id="line2d_5">
            <defs
               id="defs45">
              <path
                 d=" M0 0 L0 4"
                 id="mdad270ee8e"
                 style="stroke:#000000;stroke-linecap:butt;stroke-width:0.5;" />
            </defs>
            <g
               id="g48">
              <use
                 style="stroke:#000000;stroke-linecap:butt;stroke-width:0.5;"
                 x="162.0"
                 xlink:href="#mdad270ee8e"
                 y="72.9"
                 id="use50" />
            </g>
          </g>
          <g
             id="text_1">
            <!-- 0.0 -->
            <defs
               id="defs53">
              <path
                 d=" M31.7812 66.4062 Q24.1719 66.4062 20.3281 58.9062 Q16.5 51.4219 16.5 36.375 Q16.5 21.3906 20.3281 13.8906 Q24.1719 6.39062 31.7812 6.39062 Q39.4531 6.39062 43.2812 13.8906 Q47.125 21.3906 47.125 36.375 Q47.125 51.4219 43.2812 58.9062 Q39.4531 66.4062 31.7812 66.4062 M31.7812 74.2188 Q44.0469 74.2188 50.5156 64.5156 Q56.9844 54.8281 56.9844 36.375 Q56.9844 17.9688 50.5156 8.26562 Q44.0469 -1.42188 31.7812 -1.42188 Q19.5312 -1.42188 13.0625 8.26562 Q6.59375 17.9688 6.59375 36.375 Q6.59375 54.8281 13.0625 64.5156 Q19.5312 74.2188 31.7812 74.2188"
                 id="DejaVuSans-30" />
              <path
                 d=" M10.6875 12.4062 L21 12.4062 L21 0 L10.6875 0 z "
                 id="DejaVuSans-2e" />
            </defs>
            <g
               transform="translate(153.2521875 669.00625)scale(0.12 -0.12)"
               id="g57">
              <use
                 xlink:href="#DejaVuSans-30"
                 id="use59" />
              <use
                 x="63.623046875"
                 xlink:href="#DejaVuSans-2e"
                 id="use61" />
              <use
                 x="95.41015625"
                 xlink:href="#DejaVuSans-30"
                 id="use63" />
            </g>
          </g>
        </g>
        <g
           id="xtick_2">
          <g
             id="line2d_6">
            <g
               id="g67">
              <use
                 style="stroke:#000000;stroke-linecap:butt;stroke-width:0.5;"
                 x="413.1"
                 xlink:href="#mcb557df647"
                 y="656.1"
                 id="use69" />
            </g>
          </g>
          <g
             id="line2d_7">
            <g
               id="g72">
              <use
                 style="stroke:#000000;stroke-linecap:butt;stroke-width:0.5;"
                 x="413.1"
                 xlink:href="#mdad270ee8e"
                 y="72.9"
                 id="use74" />
            </g>
          </g>
          <g
             id="text_2">
            <!-- 0.5 -->
            <defs
               id="defs77">
              <path
                 d=" M10.7969 72.9062 L49.5156 72.9062 L49.5156 64.5938 L19.8281 64.5938 L19.8281 46.7344 Q21.9688 47.4688 24.1094 47.8281 Q26.2656 48.1875 28.4219 48.1875 Q40.625 48.1875 47.75 41.5 Q54.8906 34.8125 54.8906 23.3906 Q54.8906 11.625 47.5625 5.09375 Q40.2344 -1.42188 26.9062 -1.42188 Q22.3125 -1.42188 17.5469 -0.640625 Q12.7969 0.140625 7.71875 1.70312 L7.71875 11.625 Q12.1094 9.23438 16.7969 8.0625 Q21.4844 6.89062 26.7031 6.89062 Q35.1562 6.89062 40.0781 11.3281 Q45.0156 15.7656 45.0156 23.3906 Q45.0156 31 40.0781 35.4375 Q35.1562 39.8906 26.7031 39.8906 Q22.75 39.8906 18.8125 39.0156 Q14.8906 38.1406 10.7969 36.2812 z "
                 id="DejaVuSans-35" />
            </defs>
            <g
               transform="translate(404.4778125 669.00625)scale(0.12 -0.12)"
               id="g80">
              <use
                 xlink:href="#DejaVuSans-30"
                 id="use82" />
              <use
                 x="63.623046875"
                 xlink:href="#DejaVuSans-2e"
                 id="use84" />
              <use
                 x="95.41015625"
                 xlink:href="#DejaVuSans-35"
                 id="use86" />
            </g>
          </g>
        </g>
        <g
           id="xtick_3">
          <g
             id="line2d_8">
            <g
               id="g90">
              <use
                 style="stroke:#000000;stroke-linecap:butt;stroke-width:0.5;"
                 x="664.2"
                 xlink:href="#mcb557df647"
                 y="656.1"
                 id="use92" />
            </g>
          </g>
          <g
             id="line2d_9">
            <g
               id="g95">
              <use
                 style="stroke:#000000;stroke-linecap:butt;stroke-width:0.5;"
                 x="664.2"
                 xlink:href="#mdad270ee8e"
                 y="72.9"
                 id="use97" />
            </g>
          </g>
          <g
             id="text_3">
            <!-- 1.0 -->
            <defs
               id="defs100">
              <path
                 d=" M12.4062 8.29688 L28.5156 8.29688 L28.5156 63.9219 L10.9844 60.4062 L10.9844 69.3906 L28.4219 72.9062 L38.2812 72.9062 L38.2812 8.29688 L54.3906 8.29688 L54.3906 0 L12.4062 0 z "
                 id="DejaVuSans-31" />
            </defs>
            <g
               transform="translate(655.715625 669.00625)scale(0.12 -0.12)"
               id="g103">
              <use
                 xlink:href="#DejaVuSans-31"
                 id="use105" />
              <use
                 x="63.623046875"
                 xlink:href="#DejaVuSans-2e"
                 id="use107" />
              <use
                 x="95.41015625"
                 xlink:href="#DejaVuSans-30"
                 id="use109" />
            </g>
          </g>
        </g>
        <g
           id="xtick_4">
          <g
             id="line2d_10">
            <g
               id="g113">
              <use
                 style="stroke:#000000;stroke-linecap:butt;stroke-width:0.5;"
                 x="915.3"
                 xlink:href="#mcb557df647"
                 y="656.1"
                 id="use115" />
            </g>
          </g>
          <g
             id="line2d_11">
            <g
               id="g118">
              <use
                 style="stroke:#000000;stroke-linecap:butt;stroke-width:0.5;"
                 x="915.3"
                 xlink:href="#mdad270ee8e"
                 y="72.9"
                 id="use120" />
            </g>
          </g>
          <g
             id="text_4">
            <!-- 1.5 -->
            <g
               transform="translate(906.94125 668.84875)scale(0.12 -0.12)"
               id="g123">
              <use
                 xlink:href="#DejaVuSans-31"
                 id="use125" />
              <use
                 x="63.623046875"
                 xlink:href="#DejaVuSans-2e"
                 id="use127" />
              <use
                 x="95.41015625"
                 xlink:href="#DejaVuSans-35"
                 id="use129" />
            </g>
          </g>
        </g>
        <g
           id="xtick_5">
          <g
             id="line2d_12">
            <g
               id="g133">
              <use
                 style="stroke:#000000;stroke-linecap:butt;stroke-width:0.5;"
                 x="1166.4"
                 xlink:href="#mcb557df647"
                 y="656.1"
                 id="use135" />
            </g>
          </g>
          <g
             id="line2d_13">
            <g
               id="g138">
              <use
                 style="stroke:#000000;stroke-linecap:butt;stroke-width:0.5;"
                 x="1166.4"
                 xlink:href="#mdad270ee8e"
                 y="72.9"
                 id="use140" />
            </g>
          </g>
          <g
             id="text_5">
            <!-- 2.0 -->
            <defs
               id="defs143">
              <path
                 d=" M19.1875 8.29688 L53.6094 8.29688 L53.6094 0 L7.32812 0 L7.32812 8.29688 Q12.9375 14.1094 22.625 23.8906 Q32.3281 33.6875 34.8125 36.5312 Q39.5469 41.8438 41.4219 45.5312 Q43.3125 49.2188 43.3125 52.7812 Q43.3125 58.5938 39.2344 62.25 Q35.1562 65.9219 28.6094 65.9219 Q23.9688 65.9219 18.8125 64.3125 Q13.6719 62.7031 7.8125 59.4219 L7.8125 69.3906 Q13.7656 71.7812 18.9375 73 Q24.125 74.2188 28.4219 74.2188 Q39.75 74.2188 46.4844 68.5469 Q53.2188 62.8906 53.2188 53.4219 Q53.2188 48.9219 51.5312 44.8906 Q49.8594 40.875 45.4062 35.4062 Q44.1875 33.9844 37.6406 27.2188 Q31.1094 20.4531 19.1875 8.29688"
                 id="DejaVuSans-32" />
            </defs>
            <g
               transform="translate(1157.69625 669.00625)scale(0.12 -0.12)"
               id="g146">
              <use
                 xlink:href="#DejaVuSans-32"
                 id="use148" />
              <use
                 x="63.623046875"
                 xlink:href="#DejaVuSans-2e"
                 id="use150" />
              <use
                 x="95.41015625"
                 xlink:href="#DejaVuSans-30"
                 id="use152" />
            </g>
          </g>
        </g>
      </g>
      <g
         id="matplotlib.axis_2">
        <g
           id="ytick_1">
          <g
             id="line2d_14">
            <defs
               id="defs157">
              <path
                 d=" M0 0 L4 0"
                 id="mc8fcea1516"
                 style="stroke:#000000;stroke-linecap:butt;stroke-width:0.5;" />
            </defs>
            <g
               id="g160">
              <use
                 style="stroke:#000000;stroke-linecap:butt;stroke-width:0.5;"
                 x="162.0"
                 xlink:href="#mc8fcea1516"
                 y="656.1"
                 id="use162" />
            </g>
          </g>
          <g
             id="line2d_15">
            <defs
               id="defs165">
              <path
                 d=" M0 0 L-4 0"
                 id="m0d5b0a6425"
                 style="stroke:#000000;stroke-linecap:butt;stroke-width:0.5;" />
            </defs>
            <g
               id="g168">
              <use
                 style="stroke:#000000;stroke-linecap:butt;stroke-width:0.5;"
                 x="1166.4"
                 xlink:href="#m0d5b0a6425"
                 y="656.1"
                 id="use170" />
            </g>
          </g>
          <g
             id="text_6">
            <!-- 0.0 -->
            <g
               transform="translate(140.504375 660.4678125)scale(0.12 -0.12)"
               id="g173">
              <use
                 xlink:href="#DejaVuSans-30"
                 id="use175" />
              <use
                 x="63.623046875"
                 xlink:href="#DejaVuSans-2e"
                 id="use177" />
              <use
                 x="95.41015625"
                 xlink:href="#DejaVuSans-30"
                 id="use179" />
            </g>
          </g>
        </g>
        <g
           id="ytick_2">
          <g
             id="line2d_16">
            <g
               id="g183">
              <use
                 style="stroke:#000000;stroke-linecap:butt;stroke-width:0.5;"
                 x="162.0"
                 xlink:href="#mc8fcea1516"
                 y="539.46"
                 id="use185" />
            </g>
          </g>
          <g
             id="line2d_17">
            <g
               id="g188">
              <use
                 style="stroke:#000000;stroke-linecap:butt;stroke-width:0.5;"
                 x="1166.4"
                 xlink:href="#m0d5b0a6425"
                 y="539.46"
                 id="use190" />
            </g>
          </g>
          <g
             id="text_7">
            <!-- 0.2 -->
            <g
               transform="translate(140.909375 543.8278125)scale(0.12 -0.12)"
               id="g193">
              <use
                 xlink:href="#DejaVuSans-30"
                 id="use195" />
              <use
                 x="63.623046875"
                 xlink:href="#DejaVuSans-2e"
                 id="use197" />
              <use
                 x="95.41015625"
                 xlink:href="#DejaVuSans-32"
                 id="use199" />
            </g>
          </g>
        </g>
        <g
           id="ytick_3">
          <g
             id="line2d_18">
            <g
               id="g203">
              <use
                 style="stroke:#000000;stroke-linecap:butt;stroke-width:0.5;"
                 x="162.0"
                 xlink:href="#mc8fcea1516"
                 y="422.82"
                 id="use205" />
            </g>
          </g>
          <g
             id="line2d_19">
            <g
               id="g208">
              <use
                 style="stroke:#000000;stroke-linecap:butt;stroke-width:0.5;"
                 x="1166.4"
                 xlink:href="#m0d5b0a6425"
                 y="422.82"
                 id="use210" />
            </g>
          </g>
          <g
             id="text_8">
            <!-- 0.4 -->
            <defs
               id="defs213">
              <path
                 d=" M37.7969 64.3125 L12.8906 25.3906 L37.7969 25.3906 z  M35.2031 72.9062 L47.6094 72.9062 L47.6094 25.3906 L58.0156 25.3906 L58.0156 17.1875 L47.6094 17.1875 L47.6094 0 L37.7969 0 L37.7969 17.1875 L4.89062 17.1875 L4.89062 26.7031 z "
                 id="DejaVuSans-34" />
            </defs>
            <g
               transform="translate(140.380625 427.1878125)scale(0.12 -0.12)"
               id="g216">
              <use
                 xlink:href="#DejaVuSans-30"
                 id="use218" />
              <use
                 x="63.623046875"
                 xlink:href="#DejaVuSans-2e"
                 id="use220" />
              <use
                 x="95.41015625"
                 xlink:href="#DejaVuSans-34"
                 id="use222" />
            </g>
          </g>
        </g>
        <g
           id="ytick_4">
          <g
             id="line2d_20">
            <g
               id="g226">
              <use
                 style="stroke:#000000;stroke-linecap:butt;stroke-width:0.5;"
                 x="162.0"
                 xlink:href="#mc8fcea1516"
                 y="306.18"
                 id="use228" />
            </g>
          </g>
          <g
             id="line2d_21">
            <g
               id="g231">
              <use
                 style="stroke:#000000;stroke-linecap:butt;stroke-width:0.5;"
                 x="1166.4"
                 xlink:href="#m0d5b0a6425"
                 y="306.18"
                 id="use233" />
            </g>
          </g>
          <g
             id="text_9">
            <!-- 0.6 -->
            <defs
               id="defs236">
              <path
                 d=" M33.0156 40.375 Q26.375 40.375 22.4844 35.8281 Q18.6094 31.2969 18.6094 23.3906 Q18.6094 15.5312 22.4844 10.9531 Q26.375 6.39062 33.0156 6.39062 Q39.6562 6.39062 43.5312 10.9531 Q47.4062 15.5312 47.4062 23.3906 Q47.4062 31.2969 43.5312 35.8281 Q39.6562 40.375 33.0156 40.375 M52.5938 71.2969 L52.5938 62.3125 Q48.875 64.0625 45.0938 64.9844 Q41.3125 65.9219 37.5938 65.9219 Q27.8281 65.9219 22.6719 59.3281 Q17.5312 52.7344 16.7969 39.4062 Q19.6719 43.6562 24.0156 45.9219 Q28.375 48.1875 33.5938 48.1875 Q44.5781 48.1875 50.9531 41.5156 Q57.3281 34.8594 57.3281 23.3906 Q57.3281 12.1562 50.6875 5.35938 Q44.0469 -1.42188 33.0156 -1.42188 Q20.3594 -1.42188 13.6719 8.26562 Q6.98438 17.9688 6.98438 36.375 Q6.98438 53.6562 15.1875 63.9375 Q23.3906 74.2188 37.2031 74.2188 Q40.9219 74.2188 44.7031 73.4844 Q48.4844 72.75 52.5938 71.2969"
                 id="DejaVuSans-36" />
            </defs>
            <g
               transform="translate(140.463125 310.5478125)scale(0.12 -0.12)"
               id="g239">
              <use
                 xlink:href="#DejaVuSans-30"
                 id="use241" />
              <use
                 x="63.623046875"
                 xlink:href="#DejaVuSans-2e"
                 id="use243" />
              <use
                 x="95.41015625"
                 xlink:href="#DejaVuSans-36"
                 id="use245" />
            </g>
          </g>
        </g>
        <g
           id="ytick_5">
          <g
             id="line2d_22">
            <g
               id="g249">
              <use
                 style="stroke:#000000;stroke-linecap:butt;stroke-width:0.5;"
                 x="162.0"
                 xlink:href="#mc8fcea1516"
                 y="189.54"
                 id="use251" />
            </g>
          </g>
          <g
             id="line2d_23">
            <g
               id="g254">
              <use
                 style="stroke:#000000;stroke-linecap:butt;stroke-width:0.5;"
                 x="1166.4"
                 xlink:href="#m0d5b0a6425"
                 y="189.54"
                 id="use256" />
            </g>
          </g>
          <g
             id="text_10">
            <!-- 0.8 -->
            <defs
               id="defs259">
              <path
                 d=" M31.7812 34.625 Q24.75 34.625 20.7188 30.8594 Q16.7031 27.0938 16.7031 20.5156 Q16.7031 13.9219 20.7188 10.1562 Q24.75 6.39062 31.7812 6.39062 Q38.8125 6.39062 42.8594 10.1719 Q46.9219 13.9688 46.9219 20.5156 Q46.9219 27.0938 42.8906 30.8594 Q38.875 34.625 31.7812 34.625 M21.9219 38.8125 Q15.5781 40.375 12.0312 44.7188 Q8.5 49.0781 8.5 55.3281 Q8.5 64.0625 14.7188 69.1406 Q20.9531 74.2188 31.7812 74.2188 Q42.6719 74.2188 48.875 69.1406 Q55.0781 64.0625 55.0781 55.3281 Q55.0781 49.0781 51.5312 44.7188 Q48 40.375 41.7031 38.8125 Q48.8281 37.1562 52.7969 32.3125 Q56.7812 27.4844 56.7812 20.5156 Q56.7812 9.90625 50.3125 4.23438 Q43.8438 -1.42188 31.7812 -1.42188 Q19.7344 -1.42188 13.25 4.23438 Q6.78125 9.90625 6.78125 20.5156 Q6.78125 27.4844 10.7812 32.3125 Q14.7969 37.1562 21.9219 38.8125 M18.3125 54.3906 Q18.3125 48.7344 21.8438 45.5625 Q25.3906 42.3906 31.7812 42.3906 Q38.1406 42.3906 41.7188 45.5625 Q45.3125 48.7344 45.3125 54.3906 Q45.3125 60.0625 41.7188 63.2344 Q38.1406 66.4062 31.7812 66.4062 Q25.3906 66.4062 21.8438 63.2344 Q18.3125 60.0625 18.3125 54.3906"
                 id="DejaVuSans-38" />
            </defs>
            <g
               transform="translate(140.52875 193.9078125)scale(0.12 -0.12)"
               id="g262">
              <use
                 xlink:href="#DejaVuSans-30"
                 id="use264" />
              <use
                 x="63.623046875"
                 xlink:href="#DejaVuSans-2e"
                 id="use266" />
              <use
                 x="95.41015625"
                 xlink:href="#DejaVuSans-38"
                 id="use268" />
            </g>
          </g>
        </g>
        <g
           id="ytick_6">
          <g
             id="line2d_24">
            <g
               id="g272">
              <use
                 style="stroke:#000000;stroke-linecap:butt;stroke-width:0.5;"
                 x="162.0"
                 xlink:href="#mc8fcea1516"
                 y="72.9"
                 id="use274" />
            </g>
          </g>
          <g
             id="line2d_25">
            <g
               id="g277">
              <use
                 style="stroke:#000000;stroke-linecap:butt;stroke-width:0.5;"
                 x="1166.4"
                 xlink:href="#m0d5b0a6425"
                 y="72.9"
                 id="use279" />
            </g>
          </g>
          <g
             id="text_11">
            <!-- 1.0 -->
            <g
               transform="translate(141.03125 77.2678125)scale(0.12 -0.12)"
               id="g282">
              <use
                 xlink:href="#DejaVuSans-31"
                 id="use284" />
              <use
                 x="63.623046875"
                 xlink:href="#DejaVuSans-2e"
                 id="use286" />
              <use
                 x="95.41015625"
                 xlink:href="#DejaVuSans-30"
                 id="use288" />
            </g>
          </g>
        </g>
      </g>
      <g
         id="patch_3">
        <path
           d=" M162 72.9 L1166.4 72.9"
           style="fill:none;stroke:#000000;"
           id="path291" />
      </g>
      <g
         id="patch_4">
        <path
           d=" M1166.4 656.1 L1166.4 72.9"
           style="fill:none;stroke:#000000;"
           id="path294" />
      </g>
      <g
         id="patch_5">
        <path
           d=" M162 656.1 L1166.4 656.1"
           style="fill:none;stroke:#000000;"
           id="path297" />
      </g>
      <g
         id="patch_6">
        <path
           d=" M162 656.1 L162 72.9"
           style="fill:none;stroke:#000000;"
           id="path300" />
      </g>
    </g>
  </g>
  <defs
     id="defs302">
    <clipPath
       id="p443d524342">
      <rect
         height="583.2"
         width="1004.4"
         x="162.0"
         y="72.9"
         id="rect305" />
    </clipPath>
  </defs>
  <text
     xml:space="preserve"
     style="stroke-linecap:square;stroke-linejoin:round"
     x="1032.0787"
     y="456.46408"
     id="text3286"
     transform="scale(0.8,0.8)"><tspan
       sodipodi:role="line"
       id="tspan3288"
       x="1032.0787"
       y="456.46408"
       style="stroke-linecap:square;stroke-linejoin:round" /></text>
  <g
     id="g3298"
     transform="translate(291.44129,-21.834364)"
     style="stroke-linecap:square;stroke-linejoin:round">
    <text
       sodipodi:linespacing="125%"
       id="text3290"
       y="351.52567"
       x="803.2439"
       style="font-size:14.39999962px;font-style:normal;font-weight:normal;text-align:center;line-height:125%;letter-spacing:0px;word-spacing:0px;text-anchor:middle;fill:#000000;fill-opacity:1;stroke:none;font-family:Sans"
       xml:space="preserve"><tspan
         style="font-size:22.39999962px"
         y="351.52567"
         x="806.80951"
         id="tspan3292"
         sodipodi:role="line">θ </tspan></text>
    <text
       sodipodi:linespacing="125%"
       id="text3294"
       y="357.5184"
       x="814.79694"
       style="font-size:14.39999962px;font-style:normal;font-weight:normal;text-align:center;line-height:125%;letter-spacing:0px;word-spacing:0px;text-anchor:middle;fill:#000000;fill-opacity:1;stroke:none;font-family:Sans"
       xml:space="preserve"><tspan
         y="357.5184"
         x="814.79694"
         id="tspan3296"
         sodipodi:role="line">S</tspan></text>
  </g>
  <text
     xml:space="preserve"
     style="font-size:14.39999962px;font-style:normal;font-weight:normal;text-align:center;line-height:125%;letter-spacing:0px;word-spacing:0px;text-anchor:middle;fill:#000000;fill-opacity:1;stroke:none;font-family:Sans"
     x="1094.6729"
     y="245.60423"
     id="text3304"
     sodipodi:linespacing="125%"><tspan
       sodipodi:role="line"
       id="tspan3306"
       x="1094.6729"
       y="245.60423"
       style="font-size:22.39999962px">λ</tspan></text>
  <rect
     style="fill:#ffffff;fill-opacity:1;stroke:#ffffff;stroke-width:1.09447944;stroke-linecap:square;stroke-linejoin:round;stroke-miterlimit:4;stroke-opacity:1;stroke-dasharray:none;stroke-dashoffset:0"
     id="rect3176"
     width="15.12979"
     height="16.613102"
     x="201.73053"
     y="823.43787"
     transform="scale(0.8,0.8)"
     ry="4.6650763" />
  <rect
     style="fill:#ffffff;fill-opacity:1;stroke:#ffffff;stroke-width:1.09447944;stroke-linecap:square;stroke-linejoin:round;stroke-miterlimit:4;stroke-opacity:1;stroke-dasharray:none;stroke-dashoffset:0"
     id="rect3178"
     width="13.053152"
     height="9.7898645"
     x="189.27071"
     y="828.48114"
     transform="scale(0.8,0.8)"
     ry="3.7320609" />
  <rect
     style="fill:#ffffff;fill-opacity:1;stroke:#ffffff;stroke-width:1.09447944;stroke-linecap:square;stroke-linejoin:round;stroke-miterlimit:4;stroke-opacity:1;stroke-dasharray:none;stroke-dashoffset:0"
     id="rect3180"
     width="4.1532755"
     height="4.4499383"
     x="197.28059"
     y="824.62451"
     transform="scale(0.8,0.8)"
     ry="2.0766377" />
  <path
     sodipodi:type="arc"
     style="fill:#ffffff;fill-opacity:1;stroke:#ffffff;stroke-width:1.09447944;stroke-linecap:square;stroke-linejoin:round;stroke-miterlimit:4;stroke-opacity:1;stroke-dasharray:none;stroke-dashoffset:0"
     id="path3186"
     sodipodi:cx="193.49815"
     sodipodi:cy="827.16473"
     sodipodi:rx="1.0754018"
     sodipodi:ry="0.64894933"
     d="m 194.57356,827.16473 a 1.0754018,0.64894933 0 0 1 -1.20602,0.64415 l 0.13061,-0.64415 z"
     transform="scale(0.8,0.8)"
     sodipodi:start="0"
     sodipodi:end="1.6925507" />
  <path
     sodipodi:type="arc"
     style="fill:#ffffff;fill-opacity:1;stroke:#ffffff;stroke-width:1.09447944;stroke-linecap:square;stroke-linejoin:round;stroke-miterlimit:4;stroke-opacity:1;stroke-dasharray:none;stroke-dashoffset:0"
     id="path3188"
     sodipodi:cx="193.86897"
     sodipodi:cy="826.33032"
     sodipodi:rx="0.63040793"
     sodipodi:ry="0.44499382"
     d="m 194.49938,826.33032 a 0.63040793,0.44499382 0 0 1 -0.70697,0.4417 l 0.0766,-0.4417 z"
     transform="scale(0.8,0.8)"
     sodipodi:start="0"
     sodipodi:end="1.6925507" />
  <path
     sodipodi:type="arc"
     style="fill:#ffffff;fill-opacity:1;stroke:#ffffff;stroke-width:1.09447944;stroke-linecap:square;stroke-linejoin:round;stroke-miterlimit:4;stroke-opacity:1;stroke-dasharray:none;stroke-dashoffset:0"
     id="path3190"
     sodipodi:cx="197.02101"
     sodipodi:cy="825.64429"
     sodipodi:rx="0.407911"
     sodipodi:ry="0.38936961"
     d="m 197.42892,825.64429 a 0.407911,0.38936961 0 0 1 -0.45745,0.38648 l 0.0495,-0.38648 z"
     transform="scale(0.8,0.8)"
     sodipodi:start="0"
     sodipodi:end="1.6925507" />
  <path
     sodipodi:type="arc"
     style="fill:#ffffff;fill-opacity:1;stroke:#ffffff;stroke-width:1.09447944;stroke-linecap:square;stroke-linejoin:round;stroke-miterlimit:4;stroke-opacity:1;stroke-dasharray:none;stroke-dashoffset:0"
     id="path3192"
     sodipodi:cx="194.77751"
     sodipodi:cy="826.34888"
     sodipodi:rx="0.092707045"
     sodipodi:ry="0.38936961"
     d="m 194.87022,826.34888 a 0.09270705,0.38936961 0 0 1 -0.10397,0.38648 l 0.0113,-0.38648 z"
     transform="scale(0.8,0.8)"
     sodipodi:start="0"
     sodipodi:end="1.6925507" />
  <path
     sodipodi:type="arc"
     style="fill:#ffffff;fill-opacity:1;stroke:#ffffff;stroke-width:1.09447944;stroke-linecap:square;stroke-linejoin:round;stroke-miterlimit:4;stroke-opacity:1;stroke-dasharray:none;stroke-dashoffset:0"
     id="path3194"
     sodipodi:cx="196.81706"
     sodipodi:cy="825.82971"
     sodipodi:rx="0.2039555"
     sodipodi:ry="0.24103832"
     d="m 197.02102,825.82971 a 0.2039555,0.24103832 0 0 1 -0.22873,0.23926 l 0.0248,-0.23926 z"
     transform="scale(0.8,0.8)"
     sodipodi:start="0"
     sodipodi:end="1.6925507" />
  <path
     sodipodi:type="arc"
     style="fill:#ffffff;fill-opacity:1;stroke:#ffffff;stroke-width:1.09447944;stroke-linecap:square;stroke-linejoin:round;stroke-miterlimit:4;stroke-opacity:1;stroke-dasharray:none;stroke-dashoffset:0"
     id="path3196"
     sodipodi:cx="195.25958"
     sodipodi:cy="826.36743"
     sodipodi:rx="0.16687268"
     sodipodi:ry="0.33374536"
     d="m 195.42646,826.36743 a 0.16687268,0.33374536 0 0 1 -0.18714,0.33128 l 0.0203,-0.33128 z"
     transform="scale(0.8,0.8)"
     sodipodi:start="0"
     sodipodi:end="1.6925507" />
  <path
     sodipodi:type="arc"
     style="fill:#ffffff;fill-opacity:1;stroke:#ffffff;stroke-width:1.09447944;stroke-linecap:square;stroke-linejoin:round;stroke-miterlimit:4;stroke-opacity:1;stroke-dasharray:none;stroke-dashoffset:0"
     id="path3198"
     sodipodi:cx="196.13103"
     sodipodi:cy="826.21912"
     sodipodi:rx="0.33374536"
     sodipodi:ry="0.29666254"
     d="m 196.46477,826.21912 a 0.33374536,0.29666254 0 0 1 -0.37428,0.29446 l 0.0405,-0.29446 z"
     transform="scale(0.8,0.8)"
     sodipodi:start="0"
     sodipodi:end="1.6925507" />
  <rect
     style="fill:#ffffff;fill-opacity:1;stroke:#ffffff;stroke-width:1.09447944;stroke-linecap:square;stroke-linejoin:round;stroke-miterlimit:4;stroke-opacity:1;stroke-dasharray:none;stroke-dashoffset:0"
     id="rect3200"
     width="29.666254"
     height="16.613102"
     x="500.76639"
     y="824.62451"
     transform="scale(0.8,0.8)"
     ry="0.8306551" />
  <rect
     style="fill:#ffffff;fill-opacity:1;stroke:#ffffff;stroke-width:1.09447944;stroke-linecap:square;stroke-linejoin:round;stroke-miterlimit:4;stroke-opacity:1;stroke-dasharray:none;stroke-dashoffset:0"
     id="rect3202"
     width="30.852905"
     height="20.173054"
     x="815.2287"
     y="825.81116"
     transform="scale(0.8,0.8)"
     ry="0.66452408" />
  <rect
     style="fill:#ffffff;fill-opacity:1;stroke:#ffffff;stroke-width:0.91398937;stroke-linecap:square;stroke-linejoin:round;stroke-miterlimit:4;stroke-opacity:1;stroke-dasharray:none;stroke-dashoffset:0"
     id="rect3204"
     width="33.187801"
     height="19.676855"
     x="902.82269"
     y="658.98993"
     ry="0.46395949" />
  <rect
     style="fill:#ffffff;fill-opacity:1;stroke:#ffffff;stroke-width:1.09447944;stroke-linecap:square;stroke-linejoin:round;stroke-miterlimit:4;stroke-opacity:1;stroke-dasharray:none;stroke-dashoffset:0"
     id="rect3206"
     width="32.724449"
     height="17.201313"
     x="1442.8125"
     y="823.14569"
     transform="scale(0.8,0.8)"
     ry="0.46395949" />
</svg>
